<?xml version="1.0" encoding="UTF-8" standalone="no"?>
<svg
   width="16"
   height="16"
   fill="currentColor"
   class="bi bi-heart-pulse"
   viewBox="0 0 16 16"
   version="1.1"
   id="svg6"
   sodipodi:docname="heart-pulse.svg"
   inkscape:version="1.1.1 (3bf5ae0d25, 2021-09-20)"
   xmlns:inkscape="http://www.inkscape.org/namespaces/inkscape"
   xmlns:sodipodi="http://sodipodi.sourceforge.net/DTD/sodipodi-0.dtd"
   xmlns="http://www.w3.org/2000/svg"
   xmlns:svg="http://www.w3.org/2000/svg">
  <defs
     id="defs10" />
  <sodipodi:namedview
     id="namedview8"
     pagecolor="#ffffff"
     bordercolor="#666666"
     borderopacity="1.0"
     inkscape:pageshadow="2"
     inkscape:pageopacity="0.0"
     inkscape:pagecheckerboard="0"
     showgrid="false"
     inkscape:zoom="46.5625"
     inkscape:cx="8"
     inkscape:cy="7.957047"
     inkscape:window-width="1920"
     inkscape:window-height="1001"
     inkscape:window-x="2391"
     inkscape:window-y="-9"
     inkscape:window-maximized="1"
     inkscape:current-layer="svg6" />
  <path
     d="m8 2.748-.717-.737C5.6.281 2.514.878 1.4 3.053.918 3.995.78 5.323 1.508 7H.43c-2.128-5.697 4.165-8.83 7.394-5.857.06.055.119.112.176.171a3.12 3.12 0 0 1 .176-.17c3.23-2.974 9.522.159 7.394 5.856h-1.078c.728-1.677.59-3.005.108-3.947C13.486.878 10.4.28 8.717 2.01L8 2.748ZM2.212 10h1.315C4.593 11.183 6.05 12.458 8 13.795c1.949-1.337 3.407-2.612 4.473-3.795h1.315c-1.265 1.566-3.14 3.25-5.788 5-2.648-1.75-4.523-3.434-5.788-5Z"
     id="path2"
     style="fill:#800000" />
  <path
     d="M10.464 3.314a.5.5 0 0 0-.945.049L7.921 8.956 6.464 5.314a.5.5 0 0 0-.88-.091L3.732 8H.5a.5.5 0 0 0 0 1H4a.5.5 0 0 0 .416-.223l1.473-2.209 1.647 4.118a.5.5 0 0 0 .945-.049l1.598-5.593 1.457 3.642A.5.5 0 0 0 12 9h3.5a.5.5 0 0 0 0-1h-3.162l-1.874-4.686Z"
     id="path4" />
  <path
     style="fill:#aa0000;fill-rule:evenodd;stroke-width:0.0214765"
     d="M 7.8924785,10.976721 C 7.7450835,10.929655 7.6284916,10.833289 7.5639766,10.705206 7.5393922,10.656397 6.0265615,6.8888597 5.9138884,6.5958428 5.8962457,6.5499614 5.8160737,6.6614267 5.1338096,7.6804066 4.5964248,8.4830056 4.3479012,8.8361054 4.2864752,8.8842901 c -0.052181,0.040933 -0.1325247,0.077651 -0.2010303,0.091872 -0.079275,0.016457 -0.661283,0.021868 -1.9064891,0.017723 l -1.79237862,-0.00597 -0.087371,-0.046767 C 0.05196537,8.8088127 -0.05025612,8.5446739 0.05549594,8.3114094 0.11437995,8.1815248 0.17270753,8.1221416 0.30067114,8.0617969 L 0.40805369,8.0111579 2.0743864,8.0109431 3.7407192,8.0107284 4.6730442,6.6118703 C 5.2913465,5.6841712 5.6365584,5.1855532 5.697969,5.1314867 c 0.1964241,-0.1729336 0.4861622,-0.1508085 0.6630279,0.05063 0.047022,0.053555 0.2624756,0.5692399 0.8013617,1.918044 0.405377,1.0146375 0.7403537,1.8488225 0.7443923,1.8537443 0.00404,0.00492 0.012497,0.00379 0.018796,-0.0025 0.0063,-0.0063 0.3755184,-1.2860306 0.8204875,-2.8438477 L 9.5550692,3.2751678 9.665021,3.1648042 c 0.08993,-0.090266 0.1314813,-0.1151817 0.2281808,-0.1368221 0.1616072,-0.036166 0.3218232,0.00936 0.4414262,0.1254287 0.07925,0.076913 0.152038,0.249914 1.039056,2.4697095 l 0.953833,2.3870029 1.632215,5.176e-4 1.632214,5.175e-4 0.107383,0.050639 c 0.130588,0.061583 0.187484,0.1208494 0.248557,0.2589143 0.10287,0.2325539 9.21e-4,0.4875724 -0.248276,0.6210451 l -0.08619,0.046163 H 13.755131 11.89684 L 11.792321,8.934132 C 11.734831,8.904549 11.660816,8.846562 11.627835,8.8052729 11.590105,8.7580429 11.295619,8.0491958 10.833785,6.8939597 10.430039,5.8840268 10.093177,5.0505523 10.085202,5.0417942 c -0.008,-0.00876 -0.3802338,1.2643129 -0.8272425,2.8290465 -0.7692564,2.6927483 -0.8167332,2.8496323 -0.887323,2.9321013 -0.041019,0.04792 -0.1100105,0.105205 -0.153314,0.127297 -0.094043,0.04798 -0.2501912,0.07032 -0.324844,0.04648 z"
     id="path111" />
  <path
     style="fill:#aa0000;fill-rule:evenodd;stroke-width:0.0214765"
     d="M 7.7422819,14.814137 C 6.4231156,13.9221 5.2827232,13.039357 4.2416107,12.104372 3.6385536,11.562789 2.733636,10.623078 2.3211458,10.110067 l -0.082025,-0.102013 0.6415133,9.94e-4 0.6415133,9.94e-4 0.2899328,0.313913 c 0.8920593,0.965842 2.2630147,2.126445 3.7852349,3.204447 L 8,13.813575 8.4026846,13.528427 c 0.9842751,-0.696982 1.7866334,-1.330887 2.5827124,-2.040479 0.393973,-0.351171 1.031696,-0.972065 1.327322,-1.292296 l 0.173778,-0.188241 0.636918,0.0057 0.636918,0.0057 -0.266662,0.311409 c -1.254421,1.464919 -2.965567,2.938829 -5.0781239,4.374084 -0.214402,0.145664 -0.4028583,0.264279 -0.418792,0.263591 -0.015933,-6.87e-4 -0.1304464,-0.06987 -0.2544732,-0.153739 z"
     id="path187" />
  <path
     style="fill:#aa0000;fill-rule:evenodd;stroke-width:0.0214765"
     d="M 0.40877371,6.9031087 C 0.36226083,6.7917876 0.25720133,6.4440719 0.19511841,6.1959732 -0.22621347,4.5122259 0.09266456,2.9437646 1.1011276,1.7395973 1.8795195,0.81014913 3.0288391,0.19947752 4.295302,0.04242638 4.5702222,0.00833417 5.1755767,0.01357594 5.4508467,0.05243224 6.3716181,0.18240563 7.1988278,0.57146388 7.8227612,1.1680052 L 7.9998849,1.3373528 8.1663854,1.1785422 C 8.811223,0.56348669 9.6978985,0.15306773 10.617893,0.04380316 c 0.258158,-0.03066045 0.842619,-0.0311097 1.089228,-8.3724e-4 1.331596,0.16345994 2.529092,0.83252459 3.319145,1.85447038 1.006941,1.3024956 1.228659,3.0160471 0.624879,4.8293962 l -0.08067,0.242295 -0.520806,0.00575 c -0.286443,0.00316 -0.520805,-0.00113 -0.520805,-0.00953 0,-0.00841 0.03794,-0.1124714 0.08432,-0.2312543 0.177297,-0.4541135 0.316534,-1.0023133 0.367659,-1.4475364 0.03824,-0.3330119 0.01659,-0.9860048 -0.04239,-1.2785763 C 14.809365,3.3677006 14.526772,2.7885298 14.112158,2.3145134 13.004402,1.0480479 11.092593,0.63255815 9.6267239,1.3397024 9.2327405,1.5297623 9.0604952,1.6643467 8.509248,2.2128453 L 7.998362,2.7211842 7.5535433,2.2709144 C 7.0941771,1.8059186 6.893973,1.6355297 6.6090474,1.4670771 5.5834624,0.86073456 4.2177501,0.83900785 3.0711409,1.4107936 1.9316479,1.9790307 1.2123986,2.9663208 1.0292649,4.2136105 0.9840699,4.521425 0.9962532,5.2304627 1.0520719,5.5409396 c 0.06008,0.3341747 0.1730946,0.7485923 0.2906436,1.0657671 0.060742,0.1638952 0.1156133,0.314904 0.1219371,0.3355752 0.01073,0.035073 -0.02309,0.037584 -0.50615506,0.037584 H 0.44084489 Z"
     id="path226" />
</svg>
